<svg width="13" height="13" viewBox="0 0 16 15" fill="none" xmlns="http://www.w3.org/2000/svg">
<path d="M8.005 14.82C8.11507 14.82 8.25516 14.78 8.40525 14.71C8.55535 14.63 8.70544 14.55 8.85553 14.46C10.3064 13.52 11.5572 12.54 12.6279 11.5C13.6986 10.46 14.5291 9.4 15.1194 8.3C15.7098 7.2 16 6.1 16 4.98C16 4.24 15.8799 3.56 15.6398 2.96C15.3996 2.35 15.0694 1.83 14.6592 1.38C14.2389 0.94 13.7586 0.6 13.2083 0.36C12.6579 0.12 12.0675 0 11.4371 0C10.6567 0 9.97624 0.2 9.39587 0.59C8.81551 0.98 8.35522 1.5 8.005 2.14C7.66479 1.5 7.2045 0.99 6.62414 0.59C6.04378 0.19 5.36335 0 4.57286 0C3.94246 0 3.35209 0.12 2.80175 0.36C2.25141 0.6 1.77111 0.94 1.35084 1.38C0.930582 1.82 0.600375 2.35 0.360225 2.96C0.120075 3.57 0 4.24 0 4.98C0 6.09 0.290181 7.2 0.88055 8.3C1.47092 9.4 2.30144 10.46 3.37211 11.5C4.44278 12.54 5.70357 13.52 7.15447 14.46C7.29456 14.55 7.44465 14.64 7.60475 14.71C7.75485 14.79 7.89493 14.82 8.005 14.82Z" fill="white" />
</svg>
