<svg width="20" height="17" viewBox="0 0 20 17" fill="none" xmlns="http://www.w3.org/2000/svg">
<path d="M14.61 4.27L17 6.37001V2.16C17 1.98 16.95 1.84001 16.84 1.73001C16.73 1.62001 16.59 1.57001 16.41 1.57001H15.19C15.02 1.57001 14.87 1.62001 14.76 1.73001C14.65 1.84001 14.6 1.98 14.6 2.16V4.27H14.61ZM0 7.99001C0 8.19001 0.0700001 8.36001 0.2 8.48001C0.33 8.60001 0.5 8.67001 0.71 8.67001C0.82 8.67001 0.92 8.65001 1 8.62001C1.08 8.59001 1.16 8.54001 1.24 8.48001L9.38 1.66C9.47 1.58 9.56 1.54001 9.66 1.54001C9.76 1.54001 9.86 1.58 9.95 1.66L18.09 8.48001C18.16 8.54001 18.24 8.59001 18.33 8.62001C18.42 8.65001 18.51 8.67001 18.62 8.67001C18.82 8.67001 18.99 8.61001 19.13 8.48001C19.26 8.36001 19.33 8.19001 19.33 7.99001C19.33 7.75001 19.22 7.55001 19.01 7.37001L10.72 0.410004C10.4 0.140004 10.05 0 9.67 0C9.29 0 8.94 0.140004 8.62 0.410004L0.33 7.37001C0.12 7.54001 0.00999999 7.75001 0.00999999 7.99001H0ZM8.97 10.18V8.86L9.5 8.42001C9.61 8.33001 9.72 8.33001 9.83 8.42001L10.36 8.86V10.18C10.36 10.29 10.3 10.35 10.19 10.35H9.14C9.03 10.35 8.97 10.29 8.97 10.18ZM7.56 10.91C7.56 11.18 7.64 11.38 7.79 11.53C7.94 11.67 8.16 11.74 8.44 11.74H10.9C11.18 11.74 11.4 11.67 11.55 11.53C11.7 11.39 11.78 11.18 11.78 10.91V8.21001L10.18 6.87001C10.02 6.73001 9.85 6.67 9.67 6.66C9.49 6.66 9.32 6.73001 9.16 6.87001L7.56 8.21001V10.91ZM6.39 12.45V7.64L9.4 5.11C9.48 5.05 9.57 5.02001 9.67 5.01001C9.77 5.01001 9.86 5.04 9.94 5.11L12.95 7.64V12.45C12.95 12.76 12.79 12.92 12.48 12.92H6.85C6.54 12.92 6.39 12.76 6.39 12.45ZM4.95 13.22C4.95 13.59 5.05 13.87 5.25 14.06C5.45 14.25 5.76 14.34 6.16 14.34H13.18C13.58 14.34 13.88 14.25 14.08 14.06C14.29 13.87 14.39 13.59 14.39 13.22V6.94L10.23 3.45001C10.05 3.31001 9.86 3.23001 9.66 3.23001C9.46 3.23001 9.27 3.30001 9.1 3.45001L4.94 6.94V13.22H4.95ZM2.33 15.03C2.33 15.63 2.5 16.1 2.85 16.43C3.2 16.77 3.68 16.94 4.31 16.94H15.03C15.65 16.94 16.14 16.77 16.48 16.43C16.83 16.09 17 15.63 17 15.03V6.17001L15.56 6.12001V14.66C15.56 14.94 15.49 15.16 15.35 15.3C15.21 15.44 15 15.51 14.71 15.51H4.63C4.34 15.51 4.13 15.44 3.99 15.3C3.85 15.16 3.78 14.95 3.78 14.66V6.05L2.34 6.10001V15.03H2.33Z" fill="white"/>
</svg>
