<svg width="14" height="17" viewBox="0 0 14 17" fill="none" xmlns="http://www.w3.org/2000/svg">
<path d="M2.32 16.8812C2.61 16.8812 2.93 16.8212 3.27 16.7012C3.61 16.5812 3.94 16.4012 4.24 16.1412C4.55 15.8912 4.8 15.5512 4.99 15.1412C5.18 14.7312 5.28 14.2312 5.28 13.6512V6.25117C5.28 6.07117 5.3 5.95116 5.34 5.90116C5.38 5.85116 5.48 5.81117 5.64 5.78117L12.09 4.45117C12.27 4.41117 12.39 4.41117 12.45 4.45117C12.51 4.49117 12.54 4.59117 12.54 4.74117L12.59 9.70117C12.59 10.0612 12.42 10.2812 12.09 10.3512L10.91 10.6112C9.29 10.9612 8.48 11.7512 8.48 12.9812C8.48 13.3912 8.58 13.7612 8.79 14.0812C8.99 14.4012 9.27 14.6612 9.63 14.8412C9.98 15.0212 10.39 15.1212 10.84 15.1212C11.14 15.1212 11.45 15.0612 11.79 14.9512C12.13 14.8412 12.45 14.6612 12.75 14.4112C13.05 14.1612 13.3 13.8412 13.49 13.4312C13.68 13.0312 13.78 12.5312 13.78 11.9512V0.951166C13.78 0.551166 13.68 0.271166 13.47 0.131166C13.26 -0.00883366 12.93 -0.0388355 12.48 0.0511645L4.88 1.62116C4.3 1.74116 4.01 2.05116 4.01 2.55116L4.06 11.4912C4.06 11.8312 3.92 12.0312 3.63 12.0812L2.39 12.3412C1.59 12.5112 0.99 12.8012 0.59 13.2112C0.2 13.6212 0 14.1312 0 14.7612C0 15.3912 0.22 15.9012 0.66 16.2912C1.1 16.6912 1.65 16.8912 2.33 16.8912L2.32 16.8812Z" fill="white" style="mix-blend-mode:plus-darker"/>
</svg>
