<svg width="10" height="10" viewBox="0 0 16 16" fill="none" xmlns="http://www.w3.org/2000/svg">
<path d="M2.10254 16.5557C1.63379 16.5557 1.26465 16.4502 0.995117 16.2393C0.731445 16.0342 0.599609 15.75 0.599609 15.3867C0.599609 14.8184 0.769531 14.2236 1.10938 13.6025C1.44922 12.9756 1.94141 12.3896 2.58594 11.8447C3.23047 11.2939 4.00684 10.8486 4.91504 10.5088C5.8291 10.1631 6.85449 9.99023 7.99121 9.99023C9.13379 9.99023 10.1592 10.1631 11.0674 10.5088C11.9814 10.8486 12.7578 11.2939 13.3965 11.8447C14.041 12.3896 14.5332 12.9756 14.873 13.6025C15.2188 14.2236 15.3916 14.8184 15.3916 15.3867C15.3916 15.75 15.2568 16.0342 14.9873 16.2393C14.7236 16.4502 14.3574 16.5557 13.8887 16.5557H2.10254ZM8 8.41699C7.37305 8.41699 6.79297 8.24707 6.25977 7.90723C5.72656 7.56152 5.2959 7.09863 4.96777 6.51855C4.64551 5.93262 4.48438 5.27637 4.48438 4.5498C4.48438 3.83496 4.64551 3.19043 4.96777 2.61621C5.2959 2.04199 5.72656 1.58789 6.25977 1.25391C6.79297 0.919922 7.37305 0.75293 8 0.75293C8.62695 0.75293 9.20703 0.916992 9.74023 1.24512C10.2734 1.57324 10.7012 2.02441 11.0234 2.59863C11.3516 3.16699 11.5156 3.81152 11.5156 4.53223C11.5156 5.26465 11.3516 5.92383 11.0234 6.50977C10.7012 7.0957 10.2734 7.56152 9.74023 7.90723C9.20703 8.24707 8.62695 8.41699 8 8.41699Z" fill="white"/>
</svg>
